PathFileType	4	(X/Y/Z)	/Users/itak/Documents/Research/Walk-IL/dataset/trc/00461_00167.trc
DataRate	CameraRate	NumFrames	NumMarkers	Units	OrigDataRate	OrigDataStartFrame	OrigNumFrames
100.000000	100.000000	4	53	mm	100.000000	345	553
Frame#	Time	RPSI			LPSI			L3			STRN			T10			C7			CLAV			RBAK			LBAK			LSHO			LUPA			LAEL			LAOL			LWTS			LWPS			LFRA			LIFD			LHPS			LHTS			RSHO			RUPA			RAEL			RAOL			RWTS			RWPS			RFRA			RIFD			RHTS			RHPS			RBHD			LFHD			RFHD			LBHD			LHIP			RHIP			RASI			LASI			LKNE			LTHI			LANK			LTIP			LTOE			LMT1			LMT5			LHEE			RKNE			RTHI			RANK			RTIP			RTOE			RMT1			RMT5			RHEE			
		X1	Y1	Z1	X2	Y2	Z2	X3	Y3	Z3	X4	Y4	Z4	X5	Y5	Z5	X6	Y6	Z6	X7	Y7	Z7	X8	Y8	Z8	X9	Y9	Z9	X10	Y10	Z10	X11	Y11	Z11	X12	Y12	Z12	X13	Y13	Z13	X14	Y14	Z14	X15	Y15	Z15	X16	Y16	Z16	X17	Y17	Z17	X18	Y18	Z18	X19	Y19	Z19	X20	Y20	Z20	X21	Y21	Z21	X22	Y22	Z22	X23	Y23	Z23	X24	Y24	Z24	X25	Y25	Z25	X26	Y26	Z26	X27	Y27	Z27	X28	Y28	Z28	X29	Y29	Z29	X30	Y30	Z30	X31	Y31	Z31	X32	Y32	Z32	X33	Y33	Z33	X34	Y34	Z34	X35	Y35	Z35	X36	Y36	Z36	X37	Y37	Z37	X38	Y38	Z38	X39	Y39	Z39	X40	Y40	Z40	X41	Y41	Z41	X42	Y42	Z42	X43	Y43	Z43	X44	Y44	Z44	X45	Y45	Z45	X46	Y46	Z46	X47	Y47	Z47	X48	Y48	Z48	X49	Y49	Z49	X50	Y50	Z50	X51	Y51	Z51	X52	Y52	Z52	X53	Y53	Z53	

346	3.45	-60.56387329101562	946.240478515625	-620.6489868164062	60.37738037109375	948.3619995117188	-693.565673828125	-3.039188385009766	1042.807495117188	-635.334716796875	125.9902572631836	1242.945068359375	-394.8475341796875	-10.52671051025391	1165.160888671875	-646.9510498046875	-6.133554935455322	1432.618286132812	-579.793212890625	102.2475509643555	1355.87353515625	-425.3166198730469	-108.2677383422852	1304.928466796875	-591.0936889648438	69.49080657958984	1394.401245117188	-657.7660522460938	187.3314666748047	1423.84912109375	-605.4596557617188	275.4630432128906	1313.268920898438	-662.8828735351562	339.226318359375	1104.926879882812	-663.8212890625	245.0473937988281	1076.057495117188	-694.8924560546875	366.6974487304688	918.287841796875	-545.7221069335938	396.2553100585938	898.14404296875	-610.7176513671875	370.0022888183594	1022.786926269531	-639.9564208984375	380.9898071289062	749.3397216796875	-525.76904296875	407.4678955078125	820.14306640625	-593.3101196289062	391.2791442871094	833.8448486328125	-524.513427734375	-112.353759765625	1396.464721679688	-446.265380859375	-183.7046051025391	1330.536987304688	-430.1314392089844	-215.2833251953125	1040.705078125	-404.2403869628906	-205.3682403564453	1025.440673828125	-469.5643615722656	-99.76493835449219	846.0493774414062	-344.6771850585938	-182.6742248535156	823.0939331054688	-364.6891174316406	-215.3334197998047	981.9285888671875	-395.4589233398438	-85.37755584716797	690.3223266601562	-347.0564880371094	-90.73378753662109	747.8529663085938	-327.78564453125	-160.0413055419922	737.635498046875	-356.8563842773438	-57.56801605224609	1622.62158203125	-452.8916625976562	141.5915679931641	1656.99755859375	-409.9033813476562	28.06058502197266	1641.903686523438	-346.8754272460938	87.42999267578125	1646.891723632812	-552.4925537109375	232.4916534423828	850.8103637695312	-645.5702514648438	-109.7798080444336	837.8598022460938	-446.6627502441406	-4.138569355010986	887.111572265625	-393.2257385253906	220.1542510986328	889.463134765625	-518.931884765625	252.3832702636719	435.9889526367188	-663.3519287109375	276.5396728515625	588.7211303710938	-626.626953125	30.32010078430176	217.4951171875	-954.5609741210938	193.8741302490234	332.9063110351562	-772.1243896484375	81.51580047607422	39.01245880126953	-835.4583740234375	26.94120788574219	81.48360443115234	-833.8798217773438	92.91069793701172	83.8182373046875	-925.4004516601562	-28.42080688476562	251.8238220214844	-916.1251220703125	-4.368730545043945	449.7968444824219	-432.59619140625	-71.03836059570312	707.1943359375	-403.0018005371094	70.98158264160156	37.14649200439453	-457.6130065917969	16.20742034912109	310.3787841796875	-422.1521911621094	167.6820068359375	44.54372406005859	-256.4244689941406	185.9761962890625	50.85883331298828	-328.4778747558594	79.10505676269531	46.51607131958008	-321.859619140625	103.4935150146484	28.26977348327637	-530.4103393554688	
347	3.46	-56.44051361083984	946.2247314453125	-616.0486450195312	65.60610961914062	946.513427734375	-687.5377197265625	0.5905326008796692	1042.453979492188	-629.5289916992188	127.4079971313477	1242.983276367188	-387.5708312988281	-6.59617280960083	1165.04931640625	-640.8097534179688	-2.598936319351196	1432.698486328125	-574.1145629882812	104.1783599853516	1355.935791015625	-418.443115234375	-104.9648513793945	1305.037475585938	-586.2191162109375	73.64247894287109	1394.3720703125	-651.38330078125	191.3298950195312	1423.137573242188	-597.9599609375	279.3132019042969	1311.605590820312	-654.2032470703125	341.6844482421875	1102.719482421875	-653.0518798828125	248.0371856689453	1074.579467773438	-686.3762817382812	363.9190368652344	916.4034423828125	-533.356201171875	395.7633666992188	895.98779296875	-597.1586303710938	371.1130065917969	1020.491943359375	-627.9779052734375	376.1275634765625	747.4219360351562	-512.481201171875	405.8240966796875	817.930908203125	-579.111328125	386.9935913085938	831.8399658203125	-511.0210876464844	-110.1739501953125	1396.880126953125	-441.5384521484375	-181.8672332763672	1331.073974609375	-425.8060913085938	-213.9900054931641	1041.409423828125	-397.6099548339844	-203.6214294433594	1025.334106445312	-462.6521911621094	-97.75066375732422	848.7579956054688	-334.0416564941406	-180.2642974853516	824.6766967773438	-354.4770812988281	-213.7122497558594	982.7366333007812	-388.0097045898438	-81.72122955322266	693.2669067382812	-333.2301330566406	-87.76509094238281	750.9624633789062	-315.3380432128906	-156.7496643066406	739.5426025390625	-344.9685974121094	-55.37533569335938	1622.828247070312	-447.6766052246094	143.3057556152344	1657.102661132812	-402.4168395996094	29.05049514770508	1641.822631835938	-340.750244140625	90.66139984130859	1647.365112304688	-545.6221923828125	237.4204406738281	849.697509765625	-635.5401000976562	-108.6745300292969	838.4152221679688	-442.9371643066406	-3.703258275985718	887.297119140625	-387.6221313476562	222.7759246826172	889.4058837890625	-509.6756591796875	262.4454345703125	435.1818237304688	-645.3829956054688	284.5025634765625	588.436767578125	-610.8075561523438	45.50961303710938	222.0212707519531	-944.0365600585938	205.5096130371094	333.0704345703125	-755.9176635742188	91.58643341064453	41.31243515014648	-823.7510375976562	37.0377311706543	85.39063262939453	-823.9874877929688	106.3268966674805	87.96504211425781	-913.0772094726562	-14.23123073577881	256.5283813476562	-907.6436157226562	-4.335903644561768	449.8346252441406	-430.7112426757812	-70.52368927001953	707.1817626953125	-400.0214538574219	70.97864532470703	37.11541366577148	-457.6502075195312	16.28120040893555	310.2708435058594	-421.0902404785156	167.5854339599609	44.35604858398438	-256.3825073242188	185.8204956054688	50.87173843383789	-328.3798522949219	78.91390228271484	46.33935165405273	-321.7374267578125	103.5881805419922	28.32028198242188	-530.4490356445312	
348	3.47	-52.26905822753906	946.2874755859375	-611.5662231445312	70.91324615478516	944.8926391601562	-681.4712524414062	4.199803352355957	1042.131225585938	-623.9356689453125	128.7901611328125	1243.0595703125	-380.4754943847656	-2.685820579528809	1165.018798828125	-634.8915405273438	0.9215862154960632	1432.798583984375	-568.5050048828125	106.0930709838867	1356.027587890625	-411.7210998535156	-101.6930923461914	1305.229125976562	-581.44921875	77.68691253662109	1394.4140625	-645.087890625	195.2882080078125	1422.440307617188	-590.5829467773438	283.1223449707031	1309.96533203125	-645.5789794921875	344.11669921875	1100.573120117188	-642.279541015625	251.0550384521484	1073.12744140625	-677.8417358398438	361.1732788085938	914.6007690429688	-521.287109375	395.2416381835938	893.9453125	-583.8631591796875	372.1825561523438	1018.256896972656	-616.0924682617188	371.9300231933594	745.7196044921875	-499.469970703125	404.4131164550781	815.9574584960938	-565.2044067382812	383.0422668457031	830.0827026367188	-497.8811950683594	-107.9606552124023	1397.31005859375	-436.8633728027344	-179.9906616210938	1331.623901367188	-421.5355529785156	-212.7137298583984	1042.19287109375	-391.11181640625	-201.8139038085938	1025.283813476562	-455.8565063476562	-96.02365875244141	851.5861206054688	-323.3808288574219	-178.0945129394531	826.389892578125	-344.3818359375	-212.1678161621094	983.6242065429688	-380.681396484375	-78.53457641601562	696.4000244140625	-319.0538024902344	-85.21986389160156	754.3438720703125	-302.7040405273438	-153.9356384277344	741.6359252929688	-332.8704223632812	-53.09939956665039	1623.028076171875	-442.5478210449219	145.0425720214844	1657.134155273438	-394.931884765625	30.0715389251709	1641.690795898438	-334.6710510253906	94.00352478027344	1647.826538085938	-538.7523193359375	242.2737884521484	848.7028198242188	-625.4354248046875	-107.5991058349609	839.0033569335938	-439.40869140625	-3.389577865600586	887.5720825195312	-382.2169494628906	225.2759246826172	889.4336547851562	-500.4342956542969	271.9796447753906	434.7436218261719	-627.2069091796875	292.0646057128906	588.4439086914062	-594.8873901367188	60.76981735229492	225.2702331542969	-932.686279296875	216.8625183105469	333.4128112792969	-739.3991088867188	103.0833129882812	43.77360153198242	-810.430419921875	48.39997482299805	88.83795166015625	-812.6370849609375	120.7296524047852	91.48440551757812	-899.3916015625	0.02052617445588112	259.8648071289062	-898.424560546875	-4.275048732757568	449.9006652832031	-428.9646606445312	-69.97357177734375	707.2310791015625	-397.1857299804688	70.96582794189453	37.06475448608398	-457.7030029296875	16.33731842041016	310.192626953125	-420.1883850097656	167.4683990478516	44.23691558837891	-256.3386840820312	185.6459503173828	50.91497421264648	-328.2922058105469	78.70217132568359	46.16662979125977	-321.6356506347656	103.6606521606445	28.34988975524902	-530.4926147460938	
349	3.48	-48.0681266784668	946.4339599609375	-607.1724853515625	76.27764892578125	943.6024169921875	-675.299072265625	7.825960636138916	1041.8818359375	-618.512939453125	130.1337890625	1243.209228515625	-373.5591125488281	1.18329119682312	1165.08837890625	-629.1942138671875	4.437125682830811	1432.944091796875	-562.97802734375	107.9885864257812	1356.183837890625	-405.1550903320312	-98.45570373535156	1305.524169921875	-576.7806396484375	81.62206268310547	1394.5498046875	-638.89599609375	199.1954040527344	1421.812744140625	-583.3193969726562	286.9050903320312	1308.435913085938	-636.99658203125	346.4915466308594	1098.550903320312	-631.5484619140625	254.0493774414062	1071.777465820312	-669.2695922851562	358.5303649902344	912.9305419921875	-509.5509948730469	394.6917419433594	892.0545654296875	-570.90478515625	373.2020874023438	1016.139343261719	-604.3602294921875	368.3885192871094	744.24755859375	-486.7527160644531	403.2105712890625	814.2387084960938	-551.6541137695312	379.4686279296875	828.5916137695312	-485.1313171386719	-105.725227355957	1397.795166015625	-432.257080078125	-178.0737762451172	1332.234741210938	-417.322265625	-211.4273834228516	1043.093627929688	-384.7500915527344	-199.9286651611328	1025.333984375	-449.1763000488281	-94.55162048339844	854.5415649414062	-312.7549743652344	-176.1397094726562	828.26806640625	-334.4369812011719	-210.6742248535156	984.6303100585938	-373.4896850585938	-75.87553405761719	699.7205200195312	-304.6612854003906	-83.11280059814453	757.9873046875	-289.9811706542969	-151.5976867675781	743.9490356445312	-320.6419372558594	-50.74014663696289	1623.23779296875	-437.4937133789062	146.8120727539062	1657.095703125	-387.4539489746094	31.13496017456055	1641.516235351562	-328.63330078125	97.45100402832031	1648.286499023438	-531.8822631835938	247.0268249511719	847.88232421875	-615.2160034179688	-106.5350723266602	839.5849609375	-436.0646057128906	-3.202928781509399	887.907958984375	-376.9874267578125	227.6119842529297	889.58935546875	-491.177490234375	281.0010986328125	434.7221069335938	-608.8977661132812	299.2431030273438	588.7763671875	-578.917236328125	76.09145355224609	227.2792816162109	-920.508544921875	227.9689636230469	333.93212890625	-722.6109619140625	115.8979721069336	46.14039611816406	-795.6765747070312	60.93412780761719	91.65593719482422	-799.9064331054688	135.9771118164062	94.29359436035156	-884.462890625	14.33212471008301	261.8318176269531	-888.4115600585938	-4.168446063995361	449.9822082519531	-427.3395080566406	-69.41181945800781	707.3251953125	-394.4904174804688	70.94863128662109	37.0042610168457	-457.7657470703125	16.38317680358887	310.136962890625	-419.4358215332031	167.3227691650391	44.1555061340332	-256.2713317871094	185.4554138183594	50.9858283996582	-328.1993103027344	78.46884155273438	45.99446105957031	-321.54736328125	103.7180862426758	28.36899566650391	-530.5396728515625	
